<?xml version="1.0" encoding="UTF-8" standalone="no"?><!DOCTYPE svg PUBLIC "-//W3C//DTD SVG 1.1//EN" "http://www.w3.org/Graphics/SVG/1.1/DTD/svg11.dtd"><svg width="100%" height="100%" viewBox="0 0 4759 2677" version="1.1" xmlns="http://www.w3.org/2000/svg" xmlns:xlink="http://www.w3.org/1999/xlink" xml:space="preserve" xmlns:serif="http://www.serif.com/" style="fill-rule:evenodd;clip-rule:evenodd;stroke-linejoin:round;stroke-miterlimit:2;"><path d="M2871.46,2217.39l21.169,-900.632c0.682,-54.48 62.463,-59.591 55.046,-112.372c-11.549,-62.994 -172.923,-125.987 -426.596,-125.987c-595.884,0 -995.801,524.383 -920.636,1077.7c42.786,352.422 214.469,509.053 442.61,509.053c253.672,0 439.238,-200.901 535.073,-543.112c-8.015,195.802 -4.188,297.955 12.38,367.756c27.479,115.765 99.507,175.356 222.092,175.356c163.438,0 294.035,-95.345 346.203,-248.573c10.241,-35.742 4.583,-59.579 -14.468,-68.094c-16.937,-6.806 -29.353,-1.708 -48.821,23.837c-54.708,85.122 -92.914,110.667 -137.17,110.667c-61.299,-0 -91.251,-54.492 -86.882,-265.604Zm-935.797,-47.672c-59.312,-493.732 181.6,-999.382 535.73,-999.382c78.316,0 113.793,56.183 116.628,168.55c11.654,694.633 -194.466,1174.75 -426.01,1174.75c-105.556,0 -199.697,-95.345 -226.348,-343.919Z" style="fill-rule:nonzero;"/><path d="M90.832,574.784c57.418,-89.15 121.646,-160.106 191.686,-216.507l-31.141,2068.64c-1.516,87.33 -28.099,116.44 -147.471,145.551c-30.576,14.555 -41.138,29.11 -35.15,50.942c6.488,23.652 30.494,38.207 60.924,36.388l717.804,0.292c36.387,0 55.049,-26.527 48.062,-51.998c-5.989,-21.833 -24.537,-23.888 -64.74,-31.166l-134.167,-22.36c-83.546,-12.736 -98.164,-69.429 -98.467,-156.759l4.385,-680.449c93.881,63.678 211.206,100.066 346.838,103.705c421.565,11.309 752.819,-442.066 681.202,-886.039c-79.681,-493.972 -384.153,-796.89 -823.976,-815.084c-68.316,-3.639 -132.815,0 -192.678,7.278l1.005,-1.679c-1.125,-83.691 -30.797,-125.537 -89.017,-125.537c-69.137,0 -235.042,98.247 -238.024,200.132l-2.938,34.427c-109.39,65.498 -197.239,156.467 -268.681,267.45c-22.446,30.929 -22.06,65.497 3.443,85.511c23.184,18.193 53.937,10.916 71.101,-12.736Zm749.887,1135.29c-87.008,-5.458 -165.949,-34.568 -237.821,-90.969l9.206,-1399.11c52.586,-7.277 106.668,-9.097 162.248,-5.458c234.731,20.013 433.069,245.617 486.702,693.185c64.032,538.537 -131.198,815.083 -420.335,802.347Z" style="fill-rule:nonzero;"/><path d="M4239.63,401.893c-257.506,-389.161 -916.537,-574.897 -946.206,-120.665l-5.459,2020.9c-4.028,253.673 78.236,374.55 274.026,374.55c202.609,0 353.837,-114.07 386.356,-274.106c6.309,-37.462 -3.439,-59.591 -22.404,-66.397c-16.296,-3.404 -26.755,1.695 -40.852,23.836c-49.824,93.638 -108.908,131.087 -170.195,131.087c-69.801,0 -110.447,-52.771 -108.354,-265.59l4.108,-1544.19c1.112,-228.139 -182.203,-306.971 -205.053,-431.744c-97.17,-530.599 1162.76,42.473 619.965,399.027c-56.561,37.154 1.285,196.106 152.991,246.714c151.706,50.608 246.15,-22.819 248.464,-126.52c2.69,-120.551 -93.358,-224.804 -187.387,-366.908Z" style="fill-rule:nonzero;"/><path d="M4453.32,2244.24l10.184,-772.949c1.879,-257.08 -109.812,-381.364 -283.473,-381.364c-166.842,-0 -287.349,102.151 -332.704,265.598c-6.13,32.339 0.208,56.175 20.095,64.69c17.633,6.819 30.656,-0 47.034,-22.129c50.17,-88.538 90.945,-114.07 131.799,-114.07c64.702,0 109.77,62.994 105.371,257.076l-12.451,771.253c-3.092,238.351 90.448,364.34 279.431,364.34c182.163,0 301.56,-95.345 337.87,-250.269c6.687,-35.755 -8.249,-61.299 -27.572,-68.106c-17.616,-6.807 -23.194,-1.695 -40.12,23.836c-46.222,85.123 -85.286,110.667 -127.847,110.667c-61.299,0 -110.319,-59.59 -107.617,-248.573Z" style="fill-rule:nonzero;"/></svg>