<?xml version="1.0" encoding="UTF-8" standalone="no"?><!DOCTYPE svg PUBLIC "-//W3C//DTD SVG 1.1//EN" "http://www.w3.org/Graphics/SVG/1.1/DTD/svg11.dtd"><svg width="100%" height="100%" viewBox="0 0 12439 3473" version="1.1" xmlns="http://www.w3.org/2000/svg" xmlns:xlink="http://www.w3.org/1999/xlink" xml:space="preserve" xmlns:serif="http://www.serif.com/" style="fill-rule:evenodd;clip-rule:evenodd;stroke-linejoin:round;stroke-miterlimit:2;"><path d="M90.832,574.784c57.418,-89.15 121.646,-160.106 191.686,-216.507l-31.141,2068.64c-1.516,87.33 -28.099,116.44 -147.471,145.551c-30.576,14.555 -41.138,29.11 -35.15,50.942c6.488,23.652 30.494,38.207 60.924,36.388l717.804,0.292c36.387,0 55.049,-26.527 48.062,-51.998c-5.989,-21.833 -24.537,-23.888 -64.74,-31.166l-134.167,-22.36c-83.546,-12.736 -98.164,-69.429 -98.467,-156.759l4.385,-680.449c93.881,63.678 211.206,100.066 346.838,103.705c421.565,11.309 752.819,-442.066 681.202,-886.039c-79.681,-493.972 -384.153,-796.89 -823.976,-815.084c-68.316,-3.639 -132.815,0 -192.678,7.278l1.005,-1.679c-1.125,-83.691 -30.797,-125.537 -89.017,-125.537c-69.137,0 -235.042,98.247 -238.024,200.132l-2.938,34.427c-109.39,65.498 -197.239,156.467 -268.681,267.45c-22.446,30.929 -22.06,65.497 3.443,85.511c23.184,18.193 53.937,10.916 71.101,-12.736Zm749.887,1135.29c-87.008,-5.458 -165.949,-34.568 -237.821,-90.969l9.206,-1399.11c52.586,-7.277 106.668,-9.097 162.248,-5.458c234.731,20.013 433.069,245.617 486.702,693.185c64.032,538.537 -131.198,815.083 -420.335,802.347Z" style="fill-rule:nonzero;"/><path d="M2871.46,2217.39l21.169,-900.632c0.682,-54.48 62.463,-59.591 55.046,-112.372c-11.549,-62.994 -172.923,-125.987 -426.596,-125.987c-595.884,0 -995.801,524.383 -920.636,1077.7c42.786,352.422 214.469,509.053 442.61,509.053c253.672,0 439.238,-200.901 535.073,-543.112c-8.015,195.802 -4.188,297.955 12.38,367.756c27.479,115.765 99.507,175.356 222.092,175.356c163.438,0 294.035,-95.345 346.203,-248.573c10.241,-35.742 4.583,-59.579 -14.468,-68.094c-16.937,-6.806 -29.353,-1.708 -48.821,23.837c-54.708,85.122 -92.914,110.667 -137.17,110.667c-61.299,-0 -91.251,-54.492 -86.882,-265.604Zm-935.797,-47.672c-59.312,-493.732 181.6,-999.382 535.73,-999.382c78.316,0 113.793,56.183 116.628,168.55c11.654,694.633 -194.466,1174.75 -426.01,1174.75c-105.556,0 -199.697,-95.345 -226.348,-343.919Z" style="fill-rule:nonzero;"/><path d="M4239.63,401.893c-257.506,-389.161 -916.537,-574.897 -946.206,-120.665l-5.459,2020.9c-4.028,253.673 78.236,374.55 274.026,374.55c202.609,0 353.837,-114.07 386.356,-274.106c6.309,-37.462 -3.439,-59.591 -22.404,-66.397c-16.296,-3.404 -26.755,1.695 -40.852,23.836c-49.824,93.638 -108.908,131.087 -170.195,131.087c-69.801,0 -110.447,-52.771 -108.354,-265.59l4.108,-1544.19c1.112,-228.139 -182.203,-306.971 -205.053,-431.744c-97.17,-530.599 1162.76,42.473 619.965,399.027c-56.561,37.154 1.285,196.106 152.991,246.714c151.706,50.608 246.15,-22.819 248.464,-126.52c2.69,-120.551 -93.358,-224.804 -187.387,-366.908Z" style="fill-rule:nonzero;"/><path d="M4419.99,2244.24l10.184,-772.949c1.879,-257.08 -76.479,-381.364 -250.14,-381.364c-166.842,-0 -287.349,102.151 -332.704,265.598c-6.13,32.339 0.208,56.175 20.095,64.69c17.633,6.819 30.656,-0 47.034,-22.129c3.347,-5.905 6.651,-11.53 9.922,-16.893c32.465,-49.88 59.929,-76.968 86.169,-89.841c12.052,-5.195 23.877,-7.336 35.708,-7.336c64.702,0 113.937,62.994 109.537,257.076l-12.45,771.253c-3.093,238.351 86.281,364.34 275.264,364.34c182.163,0 301.56,-95.345 337.87,-250.269c6.687,-35.755 -8.249,-61.299 -27.572,-68.106c-17.616,-6.807 -23.194,-1.695 -40.12,23.836c-46.222,85.123 -85.286,110.667 -127.847,110.667c-61.299,0 -143.652,-59.59 -140.95,-248.573Z" style="fill-rule:nonzero;"/><path d="M4427.74,1656.23l-5.012,380.394c39.073,-520.715 283.493,-746.554 446.978,-746.554c112.234,0 163.797,73.123 152.57,300.992l-33.652,719.32c-10.004,238.073 71.482,362.211 261.94,362.211c181.956,-0 306.014,-95.229 350.098,-249.977c8.473,-35.711 1.651,-59.518 -17.791,-68.02c-17.254,-6.803 -28.909,-0 -47.594,23.807c-50.459,85.026 -91.977,112.234 -132.79,112.234c-59.518,0 -104.507,-56.117 -95.438,-249.976l31.971,-695.513c15.314,-278.885 -56.257,-457.44 -306.233,-457.44c-213.488,0 -480.833,148.862 -605.047,568.522Z" style="fill-rule:nonzero;"/><path d="M7005.16,2619.88l-63.279,-1300.9c-2.964,-57.818 58.255,-57.818 46.063,-112.234c-14.141,-61.219 -178.654,-119.037 -423.529,-119.037c-627.492,0 -977.351,535.664 -863.415,1117.24c61.736,328.2 249.639,467.643 462.204,467.643c243.174,-0 426.442,-173.453 507.291,-520.359l20.278,717.619c12.202,357.109 -68.578,477.825 -279.039,475.615c-238.797,-2.507 -226.206,-252.628 -384.354,-252.628c-96.93,-0 -175.919,56.508 -175.396,134.341c0.562,83.653 114.592,172.445 352.487,227.62c396.134,91.876 823.626,-180.643 800.689,-834.924Zm-974.031,-431.932c-100.51,-505.055 131.556,-1006.71 469.959,-1006.71c73.123,0 109.609,56.117 125.491,164.95c98.332,515.258 -75.786,1171.66 -347.869,1171.66c-91.829,0 -199.021,-71.421 -247.581,-329.9Z" style="fill-rule:nonzero;"/><path d="M8458.7,2148.83c-2.466,-44.214 -23.618,-64.62 -46.213,-66.321c-20.406,0 -32.787,10.204 -43.935,42.513c-32.836,241.474 -187.723,365.612 -391.785,365.612c-234.672,0 -417.264,-180.255 -479.497,-522.059c-0.249,-6.802 -2.198,-13.605 -1.959,-18.706c245.521,-98.63 740.69,-299.292 865.275,-345.206c45.656,-18.705 55.6,-37.411 49.266,-59.518c-7.061,-18.705 -21.401,-27.208 -45.208,-27.208c-31.823,1.7 -50.787,-17.005 -59.558,-47.615c-66.739,-209.164 -246.656,-386.018 -503.434,-386.018c-447.237,0 -721.378,443.836 -621.097,965.896c74.426,396.221 322.891,622.39 676.599,622.39c403.023,-0 598.394,-226.169 601.546,-523.76Zm-679.811,-977.799c100.33,-0 197.111,112.234 241.454,266.981c21.689,81.625 31.942,141.144 31.495,187.058c-136.479,57.817 -398.996,168.351 -568.988,239.773c-44.801,-411.526 100.479,-693.812 296.039,-693.812Z" style="fill-rule:nonzero;"/><path d="M8487.19,1417.61c15.553,6.802 28.909,0 48.082,-22.106c54.586,-88.428 94.891,-113.935 137.404,-113.935c62.919,-0 103.781,59.518 92.286,256.778l-50.03,887.671c-9.09,170.052 31.544,246.576 159.083,246.576c168.351,-0 257.703,-56.117 234.314,-137.742c-13.644,-47.615 -45.974,-71.422 -60.105,-120.737c-15.106,-52.716 -20.278,-136.042 -7.579,-346.906c31.613,-542.466 282.365,-777.138 449.016,-777.138c112.234,0 163.797,73.123 152.57,300.992l-33.652,719.32c-10.004,238.073 71.482,362.211 261.941,362.211c181.955,-0 306.013,-95.229 350.097,-249.977c8.473,-35.711 1.651,-59.518 -17.79,-68.02c-17.254,-6.803 -28.909,-0 -47.595,23.807c-50.459,85.026 -91.977,112.234 -132.79,112.234c-59.518,0 -104.507,-56.117 -95.438,-249.976l31.971,-695.513c15.314,-278.885 -56.257,-457.44 -306.233,-457.44c-217.667,0 -491.321,154.748 -612.177,593.482c18.795,-183.656 37.372,-338.404 9.109,-437.034c-29.724,-103.731 -111.15,-156.448 -225.085,-156.448c-168.352,0 -301.151,100.331 -354.215,265.282c-9.447,32.309 -2.625,56.117 16.816,64.619Z" style="fill-rule:nonzero;"/><path d="M10298.4,2324.74c6.258,194.569 187.304,349.883 426.248,349.883c233.825,0 441.708,-114.352 557.108,-319.161c117.936,203.103 312.355,315.748 556.42,315.748c378.898,-0 583.777,-208.223 599.846,-527.385c0.938,-44.375 -23.705,-64.856 -46.382,-66.563c-20.481,-0 -29.493,10.24 -42.389,42.668c-41.979,240.652 -188.899,365.244 -395.416,365.244c-233.824,0 -403.91,-170.674 -471.981,-515.437c-5.629,-25.601 -9.063,-49.496 -12.985,-75.097c240.841,-64.857 752.016,-204.81 898.757,-252.599c37.538,-11.947 49.715,-29.014 41.65,-51.202c-6.847,-23.895 -23.435,-34.135 -47.33,-34.135c-31.939,1.707 -51.462,-18.774 -61.482,-47.789c-72.612,-235.531 -255.155,-431.807 -519.7,-431.807c-192.863,-0 -350.542,87.044 -460.632,226.997c-93.502,-141.66 -243.8,-221.716 -429.801,-225.29c-398.362,-7.655 -558.081,204.612 -560.405,429.748c-1.128,109.232 68.438,148.024 114.423,137.728c85.49,-19.141 139.505,-123.674 138.593,-253.752c-1.261,-179.843 134.542,-246.148 299.195,-231.115c139.416,12.729 261.701,129.027 269.716,383.333l3.104,213.343c0.01,11.947 -1.198,25.601 -2.405,39.255c-585.564,112.646 -862.406,278.2 -854.152,527.385Zm1461.95,-1164c100.698,-0 198.082,119.472 248.456,295.267c21.28,80.217 32.059,141.66 32.588,191.156c-136.499,47.788 -410.248,122.885 -581.371,168.968c-30.063,-378.898 112.584,-655.391 300.327,-655.391Zm-583.437,906.282c15.43,83.631 40.852,160.435 72.362,228.704c-87.892,151.901 -219.002,230.411 -357.249,230.411c-134.833,0 -242.448,-107.525 -248.417,-247.478c-10.64,-186.035 118.714,-324.282 509,-409.619c2.734,63.149 9.861,129.712 24.304,197.982Z" style="fill-rule:nonzero;"/></svg>